<?xml version="1.0" encoding="UTF-8" standalone="no"?>
<svg
   xmlns:dc="http://purl.org/dc/elements/1.1/"
   xmlns:cc="http://creativecommons.org/ns#"
   xmlns:rdf="http://www.w3.org/1999/02/22-rdf-syntax-ns#"
   xmlns:svg="http://www.w3.org/2000/svg"
   xmlns="http://www.w3.org/2000/svg"
   xmlns:sodipodi="http://sodipodi.sourceforge.net/DTD/sodipodi-0.dtd"
   xmlns:inkscape="http://www.inkscape.org/namespaces/inkscape"
   viewBox="-0.2 -1 48 48"
   id="svg2"
   version="1.1"
   inkscape:version="0.48.3.1 r9886"
   width="100%"
   height="100%"
   sodipodi:docname="icon_github.svg"
   inkscape:export-filename="/home/steven/Documents/projects/website/assets/img/social/icon_github.png"
   inkscape:export-xdpi="37.5"
   inkscape:export-ydpi="37.5">
  <metadata
     id="metadata24">
    <rdf:RDF>
      <cc:Work
         rdf:about="">
        <dc:format>image/svg+xml</dc:format>
        <dc:type
           rdf:resource="http://purl.org/dc/dcmitype/StillImage" />
        <dc:title></dc:title>
      </cc:Work>
    </rdf:RDF>
  </metadata>
  <defs
     id="defs22" />
  <sodipodi:namedview
     pagecolor="#ffffff"
     bordercolor="#666666"
     borderopacity="1"
     objecttolerance="10"
     gridtolerance="10"
     guidetolerance="10"
     inkscape:pageopacity="0"
     inkscape:pageshadow="2"
     inkscape:window-width="1440"
     inkscape:window-height="851"
     id="namedview20"
     showgrid="false"
     inkscape:zoom="7.9941174"
     inkscape:cx="39.278089"
     inkscape:cy="19.612401"
     inkscape:window-x="0"
     inkscape:window-y="25"
     inkscape:window-maximized="1"
     inkscape:current-layer="svg2" />
  <g
     id="g3778"
     transform="translate(-0.2,-1)">
    <path
       style="fill:#646464;fill-opacity:1;fill-rule:evenodd"
       id="path8"
       d="m 48,42 c 0,3.313 -2.687,6 -6,6 H 6 C 2.687,48 0,45.313 0,42 V 6 C 0,2.687 2.687,0 6,0 h 36 c 3.313,0 6,2.687 6,6 v 36 z"
       clip-rule="evenodd"
       inkscape:connector-curvature="0" />
  </g>
  <path
     id="cat"
     d="m 50.915229,23.902702 0.03997,-0.198317 C 46.505952,22.81473 41.940052,22.80574 39.177867,22.920533 c 0.453749,-1.634953 0.590245,-3.516193 0.590245,-5.614036 0,-3.008758 -1.130374,-5.415707 -2.965501,-7.247271 0.32068,-1.035136 0.749014,-3.3340078 -0.427763,-6.2769483 0,0 -2.076136,-0.6592048 -6.772107,2.4837697 -1.839552,-0.4597503 -3.797325,-0.6867655 -5.757954,-0.6867655 -2.157234,0 -4.337027,0.2746996 -6.370044,0.8324 C 12.628854,3.1057927 10.48961,3.7829886 10.48961,3.7829886 9.0932411,7.2749128 9.9566207,9.860482 10.218904,10.502549 c -1.6412347,1.771313 -2.6432504,4.032486 -2.6432504,6.80467 0,2.092834 0.2382966,3.970366 0.8202591,5.60218 C 5.61017,22.808015 1.2108918,22.84695 -3.0795895,23.704953 l 0.039406,0.198317 c 4.3163241,-0.86323 8.7433013,-0.893219 11.5120537,-0.788412 0.1282148,0.337805 0.2711358,0.665483 0.4313326,0.982169 -2.7380552,0.08826 -7.4133234,0.437188 -11.8938424,1.701198 l 0.055255,0.194183 c 4.5159279,-1.273296 9.2317452,-1.61354 11.9432429,-1.696495 1.6359517,3.049454 4.8613077,5.018942 10.5992747,5.637451 -0.814407,0.547267 -1.645232,1.477617 -1.981903,3.05174 -1.109815,0.53085 -4.623012,1.826555 -6.730844,-1.798864 0,0 -1.1799184,-2.157229 -3.4383819,-2.326137 0,0 -2.1907868,-0.03358 -0.1512024,1.365241 0,0 1.4659018,0.690768 2.4773428,3.286607 0,0 1.3194115,4.427557 7.6864575,3.007052 v 4.573465 c 0,0 -0.13464,1.617684 -1.617676,2.156672 0,0 -0.876229,0.606653 0.06782,0.94319 0,0 4.110866,0.337094 4.110866,-3.032327 v -4.987095 c 0,0 -0.163052,-1.977756 0.808553,-2.665233 v 8.191315 c 0,0 -0.06711,1.954352 -1.078117,2.695791 0,0 -0.674342,1.21276 0.808552,0.876235 0,0 2.830432,-0.404345 2.965357,-3.706658 l 0.06411,-8.289702 h 0.680338 l 0.06468,8.289702 c 0.13464,3.302313 2.965216,3.706658 2.965216,3.706658 1.482465,0.336525 0.808552,-0.876235 0.808552,-0.876235 -1.010869,-0.741439 -1.078117,-2.695791 -1.078117,-2.695791 v -8.120641 c 0.971034,0.756148 0.808552,2.594417 0.808552,2.594417 v 4.987095 c 0,3.369563 4.111009,3.032327 4.111009,3.032327 0.943192,-0.336537 0.06768,-0.943201 0.06768,-0.943201 -1.482893,-0.538988 -1.617676,-2.156661 -1.617676,-2.156661 v -6.537233 c 0,-2.549161 -1.073406,-3.899123 -2.12311,-4.611733 6.119326,-0.606806 9.055843,-2.582715 10.408951,-5.65273 2.680373,0.07371 7.503987,0.400211 12.118003,1.701778 l 0.05483,-0.194183 c -4.587603,-1.293999 -9.379378,-1.628807 -12.086879,-1.707629 0.128214,-0.310113 0.240153,-0.63265 0.339527,-0.964462 2.748477,-0.114224 7.335937,-0.112791 11.802036,0.779564 z"
     style="fill:#ffffff;fill-opacity:1"
     inkscape:connector-curvature="0" />
</svg>
