<?xml version="1.0" encoding="UTF-8" standalone="no"?>
<svg
   xmlns:dc="http://purl.org/dc/elements/1.1/"
   xmlns:cc="http://creativecommons.org/ns#"
   xmlns:rdf="http://www.w3.org/1999/02/22-rdf-syntax-ns#"
   xmlns:svg="http://www.w3.org/2000/svg"
   xmlns="http://www.w3.org/2000/svg"
   xmlns:sodipodi="http://sodipodi.sourceforge.net/DTD/sodipodi-0.dtd"
   xmlns:inkscape="http://www.inkscape.org/namespaces/inkscape"
   version="1.1"
   id="Icon"
   x="0px"
   y="0px"
   viewBox="0 0 48 48"
   enable-background="new 0 0 48 48"
   xml:space="preserve"
   inkscape:version="0.48.3.1 r9886"
   width="100%"
   height="100%"
   sodipodi:docname="fc-webicon-twitter.svg"
   inkscape:export-filename="/home/steven/Documents/projects/website/assets/img/social/icon-twitter.png"
   inkscape:export-xdpi="60"
   inkscape:export-ydpi="60"><metadata
   id="metadata18"><rdf:RDF><cc:Work
       rdf:about=""><dc:format>image/svg+xml</dc:format><dc:type
         rdf:resource="http://purl.org/dc/dcmitype/StillImage" /><dc:title /></cc:Work></rdf:RDF></metadata><defs
   id="defs16" /><sodipodi:namedview
   pagecolor="#ffffff"
   bordercolor="#666666"
   borderopacity="1"
   objecttolerance="10"
   gridtolerance="10"
   guidetolerance="10"
   inkscape:pageopacity="0"
   inkscape:pageshadow="2"
   inkscape:window-width="1920"
   inkscape:window-height="1031"
   id="namedview14"
   showgrid="false"
   inkscape:zoom="1.2291667"
   inkscape:cx="-10.474576"
   inkscape:cy="24"
   inkscape:window-x="0"
   inkscape:window-y="25"
   inkscape:window-maximized="1"
   inkscape:current-layer="Icon" />
<linearGradient
   id="SVGID_1_"
   gradientUnits="userSpaceOnUse"
   x1="23.9995"
   y1="0"
   x2="23.9995"
   y2="48.0005">
	<stop
   offset="0"
   style="stop-color:#4BD0EF"
   id="stop4" />
	<stop
   offset="1"
   style="stop-color:#29AAE1"
   id="stop6" />
</linearGradient>
<path
   fill-rule="evenodd"
   clip-rule="evenodd"
   fill="url(#SVGID_1_)"
   d="M48,42c0,3.313-2.687,6-6,6H6c-3.313,0-6-2.687-6-6V6  c0-3.313,2.687-6,6-6h36c3.313,0,6,2.687,6,6V42z"
   id="path8"
   style="fill:#646464;fill-opacity:1" />
<path
   d="m 43.892017,13.142116 c -1.389299,0.616502 -2.881554,1.033291 -4.450717,1.220598 1.601415,-0.960104 2.828215,-2.478409 3.407503,-4.288218 -1.495977,0.888158 -3.154452,1.53319 -4.922086,1.880514 -1.412867,-1.5059 -3.42735,-2.4461573 -5.65643,-2.4461573 -4.278295,0 -7.74782,3.4682843 -7.74782,7.7490603 0,0.607818 0.06822,1.19827 0.199712,1.766394 C 18.281788,18.700551 12.572019,15.614323 8.7502075,10.926681 8.0828481,12.071612 7.700791,13.40261 7.700791,14.822919 c 0,2.688045 1.3682109,5.061016 3.447197,6.449074 -1.2702159,-0.03969 -2.4647645,-0.388259 -3.5104597,-0.968787 0,0.03225 0,0.06574 0,0.098 0,3.753587 2.6706787,6.885711 6.2158707,7.597726 -0.651234,0.177384 -1.334719,0.271658 -2.041773,0.271658 -0.499899,0 -0.984913,-0.04714 -1.458763,-0.136449 0.986153,3.076304 3.84786,5.317788 7.237997,5.381051 -2.652072,2.077745 -5.993831,3.31819 -9.6233733,3.31819 -0.6251843,0 -1.242926,-0.03721 -1.8495036,-0.110399 3.4298306,2.199309 7.5022119,3.483169 11.8785019,3.483169 14.252714,0 22.047671,-11.807796 22.047671,-22.047671 0,-0.33616 -0.0074,-0.66984 -0.02357,-1.00352 1.518305,-1.094072 2.833176,-2.458562 3.871429,-4.01284 z"
   id="path10"
   style="fill:#ffffff;fill-opacity:1"
   inkscape:connector-curvature="0" />

</svg>