<?xml version="1.0" encoding="UTF-8" standalone="no"?>
<svg
   xmlns:dc="http://purl.org/dc/elements/1.1/"
   xmlns:cc="http://creativecommons.org/ns#"
   xmlns:rdf="http://www.w3.org/1999/02/22-rdf-syntax-ns#"
   xmlns:svg="http://www.w3.org/2000/svg"
   xmlns="http://www.w3.org/2000/svg"
   xmlns:sodipodi="http://sodipodi.sourceforge.net/DTD/sodipodi-0.dtd"
   xmlns:inkscape="http://www.inkscape.org/namespaces/inkscape"
   version="1.1"
   id="Icon"
   x="0px"
   y="0px"
   viewBox="0 0 48 48"
   enable-background="new 0 0 48 48"
   xml:space="preserve"
   inkscape:version="0.48.3.1 r9886"
   width="100%"
   height="100%"
   sodipodi:docname="fc-webicon-rss.svg"><metadata
   id="metadata26"><rdf:RDF><cc:Work
       rdf:about=""><dc:format>image/svg+xml</dc:format><dc:type
         rdf:resource="http://purl.org/dc/dcmitype/StillImage" /></cc:Work></rdf:RDF></metadata><defs
   id="defs24" /><sodipodi:namedview
   pagecolor="#ffffff"
   bordercolor="#666666"
   borderopacity="1"
   objecttolerance="10"
   gridtolerance="10"
   guidetolerance="10"
   inkscape:pageopacity="0"
   inkscape:pageshadow="2"
   inkscape:window-width="1920"
   inkscape:window-height="1031"
   id="namedview22"
   showgrid="false"
   inkscape:zoom="9.8333333"
   inkscape:cx="11.583563"
   inkscape:cy="24"
   inkscape:window-x="0"
   inkscape:window-y="25"
   inkscape:window-maximized="1"
   inkscape:current-layer="Icon" />
<linearGradient
   id="SVGID_1_"
   gradientUnits="userSpaceOnUse"
   x1="23.9995"
   y1="0"
   x2="23.9995"
   y2="48.0005">
	<stop
   offset="0"
   style="stop-color:#F2A833"
   id="stop4" />
	<stop
   offset="1"
   style="stop-color:#E8621D"
   id="stop6" />
</linearGradient>
<path
   fill-rule="evenodd"
   clip-rule="evenodd"
   fill="url(#SVGID_1_)"
   d="M48,42c0,3.313-2.687,6-6,6H6c-3.313,0-6-2.687-6-6V6  c0-3.313,2.687-6,6-6h36c3.313,0,6,2.687,6,6V42z"
   id="path8"
   style="fill:#646464;fill-opacity:1" /><path
   sodipodi:type="arc"
   style="fill:none;stroke:#ffffff;stroke-width:4.35323381;stroke-linecap:butt;stroke-linejoin:miter;stroke-miterlimit:4;stroke-opacity:1;stroke-dasharray:none;stroke-dashoffset:0"
   sodipodi:cx="-32.143398"
   sodipodi:cy="19.020607"
   sodipodi:rx="14.59756"
   sodipodi:ry="14.59756"
   d="m -17.545838,19.020607 a 14.59756,14.59756 0 0 1 -14.59756,14.59756"
   sodipodi:start="0"
   sodipodi:end="1.5707963"
   sodipodi:open="true"
   transform="matrix(0,-1.1485714,1.1485714,0,-12.628698,1.5036352)" />



<path
   transform="matrix(0,-1.9802956,1.9802956,0,-28.448597,-25.230804)"
   sodipodi:open="true"
   sodipodi:end="1.5707963"
   sodipodi:start="0"
   d="m -17.545838,19.020607 a 14.59756,14.59756 0 0 1 -14.59756,14.59756"
   sodipodi:ry="14.59756"
   sodipodi:rx="14.59756"
   sodipodi:cy="19.020607"
   sodipodi:cx="-32.143398"
   id="path3773"
   style="fill:none;stroke:#ffffff;stroke-width:2.5248754;stroke-linecap:butt;stroke-linejoin:miter;stroke-miterlimit:4;stroke-opacity:1;stroke-dasharray:none;stroke-dashoffset:0"
   sodipodi:type="arc" />

<path
   fill="#FFFFFF"
   d="M13.01,31.125c1.928,0,3.494,1.562,3.494,3.494c0,1.928-1.566,3.493-3.494,3.493  c-1.93,0-3.494-1.564-3.494-3.493C9.516,32.688,11.08,31.125,13.01,31.125z"
   id="path20" />
</svg>